<svg xmlns="http://www.w3.org/2000/svg" xmlns:xlink="http://www.w3.org/1999/xlink" width="500" zoomAndPan="magnify" viewBox="0 0 375 374.999991" height="500" preserveAspectRatio="xMidYMid meet" version="1.0"><defs><g/><clipPath id="b63bfd83d6"><path d="M 232 232 L 293 232 L 293 289 L 232 289 Z M 232 232 " clip-rule="nonzero"/></clipPath><clipPath id="d58f71785a"><path d="M 300.050781 235.789062 L 277.03125 296.042969 L 219.582031 274.09375 L 242.601562 213.839844 Z M 300.050781 235.789062 " clip-rule="nonzero"/></clipPath><clipPath id="733c3bdf8d"><path d="M 300.050781 235.789062 L 277.03125 296.042969 L 219.582031 274.09375 L 242.601562 213.839844 Z M 300.050781 235.789062 " clip-rule="nonzero"/></clipPath><clipPath id="88b73abc85"><path d="M 126 108.457031 L 247.492188 108.457031 L 247.492188 212 L 126 212 Z M 126 108.457031 " clip-rule="nonzero"/></clipPath><clipPath id="06960716d6"><path d="M 171 108.457031 L 247.492188 108.457031 L 247.492188 241 L 171 241 Z M 171 108.457031 " clip-rule="nonzero"/></clipPath></defs><g fill="#ffffff" fill-opacity="1"><g transform="translate(40.521067, 299.521811)"><g><path d="M 146.578125 3.25 C 123.335938 3.25 102.109375 -2.5 82.890625 -14 C 63.671875 -25.507812 48.523438 -41.253906 37.453125 -61.234375 C 26.378906 -81.210938 20.84375 -103.253906 20.84375 -127.359375 C 20.84375 -151.242188 26.378906 -173.117188 37.453125 -192.984375 C 48.523438 -212.859375 63.671875 -228.601562 82.890625 -240.21875 C 102.109375 -251.832031 123.335938 -257.640625 146.578125 -257.640625 C 163.078125 -257.640625 177.351562 -255.46875 189.40625 -251.125 C 201.457031 -246.78125 213.671875 -239.613281 226.046875 -229.625 C 228.648438 -227.675781 230.382812 -225.671875 231.25 -223.609375 C 232.125 -221.546875 232.5625 -219.101562 232.5625 -216.28125 C 232.5625 -211.9375 230.988281 -208.351562 227.84375 -205.53125 C 224.695312 -202.707031 221.054688 -201.296875 216.921875 -201.296875 C 212.796875 -201.296875 209 -202.707031 205.53125 -205.53125 C 196.625 -213.125 187.9375 -218.601562 179.46875 -221.96875 C 171 -225.34375 160.035156 -227.03125 146.578125 -227.03125 C 129.640625 -227.03125 114.054688 -222.578125 99.828125 -213.671875 C 85.609375 -204.765625 74.316406 -192.65625 65.953125 -177.34375 C 57.597656 -162.039062 53.421875 -145.378906 53.421875 -127.359375 C 53.421875 -109.117188 57.597656 -92.394531 65.953125 -77.1875 C 74.316406 -61.988281 85.609375 -49.9375 99.828125 -41.03125 C 114.054688 -32.132812 129.640625 -27.6875 146.578125 -27.6875 C 167.421875 -27.6875 187.394531 -34.851562 206.5 -49.1875 C 210.195312 -51.789062 213.78125 -53.09375 217.25 -53.09375 C 221.375 -53.09375 224.796875 -51.625 227.515625 -48.6875 C 230.234375 -45.757812 231.59375 -41.90625 231.59375 -37.125 C 231.59375 -32.570312 229.851562 -28.554688 226.375 -25.078125 C 202.925781 -6.191406 176.328125 3.25 146.578125 3.25 Z M 146.578125 3.25 "/></g></g></g><g clip-path="url(#b63bfd83d6)"><g clip-path="url(#d58f71785a)"><g clip-path="url(#733c3bdf8d)"><path fill="#ff914d" d="M 291.75 233.324219 C 292.621094 234.359375 292.660156 235.363281 291.859375 237.457031 C 291.058594 239.550781 290.257812 240.929688 287.789062 242.949219 C 284.066406 246.042969 280.226562 249.085938 276.339844 252.25 C 278.015625 262.625 279.699219 272.988281 281.328125 283.480469 C 281.367188 284.484375 280.992188 285.46875 280.34375 286.066406 C 279.519531 286.742188 278.699219 287.417969 277.707031 288.167969 C 276.5 289.113281 275.128906 289.011719 274.175781 287.800781 C 273.980469 287.585938 273.796875 286.949219 273.648438 286.617188 C 271.050781 280.121094 268.453125 273.632812 265.734375 267.09375 C 264.785156 265.886719 263.710938 264.632812 262.6875 263.253906 C 259.625 265.75 256.554688 268.238281 253.445312 270.855469 C 252.542969 271.363281 251.863281 271.664062 251.011719 272.042969 C 250.335938 272.351562 249.53125 272.605469 248.726562 272.863281 C 249.300781 275.054688 249.996094 277.296875 250.644531 279.660156 C 251.050781 280.800781 250.703125 282.082031 249.714844 282.832031 C 249.496094 283.027344 249.109375 283.304688 248.722656 283.578125 C 247.636719 284.574219 246.4375 284.394531 245.441406 283.308594 C 244.691406 282.320312 243.816406 281.285156 242.945312 280.242188 C 241.796875 278.816406 240.648438 277.394531 239.425781 275.800781 C 238.277344 274.371094 237.132812 272.941406 235.859375 271.476562 C 235.109375 270.484375 234.242188 269.445312 233.367188 268.402344 C 232.417969 267.199219 232.59375 266 233.804688 265.050781 C 234.023438 264.847656 234.285156 264.527344 234.671875 264.253906 C 235.664062 263.503906 236.960938 263.429688 237.972656 264.101562 C 240.09375 265.195312 242.214844 266.289062 244.339844 267.375 C 244.621094 266.640625 244.945312 265.78125 245.480469 265.132812 C 246.003906 264.492188 246.53125 263.847656 247.226562 263.128906 C 250.296875 260.636719 253.363281 258.140625 256.433594 255.644531 C 255.484375 254.4375 254.410156 253.183594 253.386719 251.804688 C 247.554688 247.882812 241.71875 243.960938 235.886719 240.042969 C 235.640625 239.949219 235.070312 239.585938 234.75 239.324219 C 233.800781 238.121094 234.027344 236.792969 235.109375 235.796875 C 235.933594 235.125 236.75 234.449219 237.746094 233.703125 C 238.519531 233.152344 239.566406 232.984375 240.476562 233.195312 L 270.128906 244.523438 C 273.847656 241.433594 277.691406 238.386719 281.578125 235.21875 C 284.039062 233.199219 285.476562 232.757812 287.746094 232.359375 C 289.96875 232.082031 290.878906 232.28125 291.75 233.324219 " fill-opacity="1" fill-rule="evenodd"/></g></g></g><g clip-path="url(#88b73abc85)"><path fill="#ffffff" d="M 126 128.765625 L 160.28125 198.945312 L 156.132812 211.867188 L 247.671875 108.457031 L 177.015625 174.488281 L 154.871094 128.765625 Z M 126 128.765625 " fill-opacity="1" fill-rule="evenodd"/></g><g clip-path="url(#06960716d6)"><path fill="#ffffff" d="M 247.671875 108.457031 L 171.03125 219.949219 L 181.757812 240.972656 Z M 247.671875 108.457031 " fill-opacity="1" fill-rule="evenodd"/></g></svg>